<svg xmlns="http://www.w3.org/2000/svg" xmlns:xlink="http://www.w3.org/1999/xlink" version="1.1" x="0px" y="0px" viewBox="0 0 95 118.75" enable-background="new 0 0 95 95" xml:space="preserve"><rect x="-868.358" y="32.354" width="87.887" height="21.143"/><rect x="-863.384" y="54.533" width="77.938" height="38.139"/><path d="M-826.946,17.998c-1.229-5.409-5.121-11.625-8.69-13.432c-1.118-0.566-3.811-0.352-5.014,0  c-2.376,0.696-5.57,3.564-8.218,5.533c-3.748,2.787-4.808,7.009-1.934,10.666c2.303,2.933,5.566,5.196,8.907,6.934  c4.511,2.349,14.743,3.815,16.453,4.293l-0.207-0.958C-826.229,27.552-825.486,24.427-826.946,17.998z M-843.288,12.339  c4.578-3.823,11.375,11.302,15.645,18.011C-834.274,25.434-847.866,16.162-843.288,12.339z"/><g><path d="M-799.01,14.293c-1.363-1.579-2.772-3.125-4.217-4.633c-4.355-4.553-9.74-4.856-13.45,0.166   c-3.029,4.1-8.546,21.687-8.546,21.687c1.298,0.001,21.11-2.556,24.692-4.707C-795.472,23.764-795.142,18.773-799.01,14.293z    M-822.209,29.461c5.249-6.374,15.201-19.474,18.784-14.707C-799.841,19.521-815.291,25.539-822.209,29.461z"/></g><g><path d="M-649.104,37.91c-0.002-2.866-0.629-5.534-1.787-7.882v-0.034c-0.065-0.117-0.14-0.227-0.209-0.342   c-1.1-2.089-4.523-4.949-4.523-4.949c-2.604-1.884-5.757-3.018-9.188-3.187c-0.995-0.049-1.997-0.067-2.99-0.015   c-0.672,0.035-1.051-0.173-1.381-0.78c-1.229-2.266-2.559-4.478-3.782-6.746c-1.027-1.904-2.655-2.839-4.717-2.852   c-8.359-0.05-16.72-0.044-25.078-0.004c-2.046,0.01-3.634,0.946-4.652,2.799c-1.284,2.337-2.633,4.638-3.93,6.967   c-0.24,0.43-0.506,0.623-1.022,0.613c-1.842-0.033-3.685-0.013-5.507-0.013c-0.58-2.596-1.692-3.471-4.335-3.474   c-1.849-0.001-3.696-0.006-5.544,0.001c-2.552,0.012-3.772,1.118-4.093,3.621c-0.024,0.2-0.181,0.441-0.362,0.601   c-0.062,0.056-0.128,0.102-0.192,0.132c-4.258,2.021-6.33,5.393-6.329,10.08c0.001,11.41-0.005,22.821,0.002,34.231   c0.003,5.613,2.379,10.484,6.52,13.631c1.458,1.107,3.13,2.004,5,2.641c1.85,0.627,3.902,0.906,5.865,0.912   c17.458,0.062,34.916,0.025,52.375,0.049v0.004c1.142,0,2.282,0.002,3.424,0c0.026,0,0.052-0.002,0.078-0.002   c2.836-0.014,5.478-0.637,7.804-1.785h0.034c0.117-0.064,0.228-0.139,0.343-0.209c2.089-1.1,4.948-4.523,4.948-4.523   c1.885-2.604,3.019-5.756,3.187-9.188c0.024-0.494,0.041-0.99,0.046-1.486c0-0.008,0-0.018,0-0.025   C-649.103,57.1-649.099,47.504-649.104,37.91z M-725.169,33.653c-2.752-0.029-5.024-2.309-5.051-5.065   c-0.024-2.751,2.327-5.109,5.097-5.111c2.788-0.002,5.074,2.307,5.065,5.114C-720.066,31.393-722.378,33.682-725.169,33.653z    M-689.444,71.381c-8.914,0.062-16.257-7.213-16.324-16.176c-0.067-9.002,7.161-16.34,16.166-16.409   c9.037-0.068,16.349,7.168,16.419,16.25C-673.114,63.992-680.406,71.316-689.444,71.381z M-708.651,22.41   c1.066-1.835,2.162-3.655,3.211-5.499c0.908-1.598,2.325-2.404,4.149-2.412c7.456-0.035,14.912-0.04,22.368,0.003   c1.839,0.011,3.291,0.816,4.207,2.458c1.022,1.833,2.127,3.624,3.165,5.45H-708.651z"/></g><g><path fill-rule="evenodd" clip-rule="evenodd" d="M-521.133,75.707c-0.684-0.268-1.094-0.842-1.152-1.496   c-0.1-1.086-0.674-1.479-1.66-1.707c-0.963-0.223-1.707-0.867-2.166-1.787c-0.35-0.709-0.258-1.43,0.447-1.691   c1.393-0.52,2.527-1.24,3.145-2.643c0.162-0.369,0.916-0.416,0.496-1.121c-0.352-0.594-0.766-0.682-1.41-0.674   c-0.887,0.008-1.922,0.266-2.576-0.631c-0.664-0.906-1.281-1.02-2.258-0.352c-1.451,0.994-3.043,0.783-3.662-0.482   c-0.385-0.779-0.881-0.955-1.6-0.979c-0.658-0.857-1.641-1.436-2.041-2.529c-0.25-0.68-0.506-1.488-1.385-1.631   c-2.465-0.4-4.311-1.729-5.012-4.072c-0.691-2.311-2.324-2.524-4.215-2.584c-0.133-0.004-0.266-0.002-0.396-0.02   c-0.479-0.062-1.029-0.068-1.164-0.662c-0.137-0.604,0.193-1.015,0.74-1.241c1.908-0.786,2.379-1.473,4.254-0.074   c1.391,1.038,2.758-0.219,3.232-1.796c0.18-0.599-0.887-0.775-0.119-0.953c0.842-0.194,1.637-0.883,1.666-1.517   c0.037-0.818-0.412-2.158,0.059-2.886c0.182-0.28-0.102-0.484-0.326-0.654c-0.646-0.487,0.029-2.542-1.311-1.517   c-0.33,0.254-0.908-0.058-1.1-0.34c-0.547-0.802-0.85-0.335-1.652-0.773c-1.379-0.751-2.832-1.062-4.119-1.952   c-1.578-1.089-3.125-4.433-4.82-4.046c-0.744-1.249-0.271-2.878-0.238-3.48c0.055-0.971-1.215-0.082-1.814-0.685   c-1.756-1.767-0.014-3.509,1.701-4.714c1.01-0.709,0.916-1.26,1.928-2.01c0.787-0.583,1.734-1.324,1.875-2.142   c0.141-0.818-0.072-1.049-0.445-1.339c-0.451-0.35-1.008,0.316-1.379-0.138c-0.439-0.536-0.77-1.249-1.475-1.468   c-0.959-0.299-1.129-0.866-0.941-1.776c0.182-0.877-0.254-1.034-0.971-0.602c-0.488,0.294-1.121-0.563-2.732-0.746   s-2.596,0.139-3.883-1.587c-0.209,0.701-0.562,1.208-1.248,0.895c-0.703-0.322-0.941-1.052-0.873-1.774   c0.074-0.782,0.695-0.735,1.312-0.689c0.838,0.062,2.01,0.521,2.359-0.464c0.285-0.809-0.822-1.32-1.424-1.867   c-0.402-0.368-0.926-0.206-1.396-0.189c-0.99,0.036-1.938,0.177-1.553-1.409c0.176-0.736-0.871-1.876-1.162-1.556   c-1.08,1.184-2.227,0.667-3.402,0.282c-0.305-0.1-0.699-0.451-0.949-0.029c-0.277,0.47,0.156,0.676,0.504,0.881   c0.301,0.176,0.674,0.367,0.568,0.791c-0.119,0.476-0.578,0.528-0.967,0.503c-1.568-0.1-3.174,0.271-4.705-0.393   c-0.639-0.278-1.123-0.08-1.572,0.534c-0.408,0.558-0.949,1.529-1.756,0.266c-0.234-0.364-0.578-0.072-0.797,0.112   c-0.883,0.741-1.674,0.442-2.506-0.115c-0.455-0.305-1.027-0.857-1.547-0.444c-1.041,0.827-1.752,0.439-2.664-0.238   c-0.576-0.427-1.525-1.148-1.967,0.426c-0.148,0.531-1.102,1.105-1.643,0.792c-1.115-0.648-1.895-0.055-2.818,0.301   c-0.779,0.3-1.617,0.371-2.473,0.306c-0.832-0.063-1.684-0.045-2.318,0.677c-0.818,0.931-1.855,0.896-3.016,0.871   c-2.201-0.047-4.439-1.358-6.611,0.101c0,0.883,0,1.766,0,2.65c0.527,0.2,1.055,0.408,1.586,0.601   c2.059,0.75,3.648,2.011,3.912,4.299c0.127,1.088,0.41,2.041,0.922,2.974c0.396,0.724,0.992,1.369,0.969,2.272   c-0.059,2.318-0.732,4.366-2.254,6.202c-0.74,0.893-0.969,0.965-1.816,1.775l-0.625,0.391c-0.889,0.126-0.918,0.913-0.164,1.646   c0.539,0.522,1.346,1.093,0.898,2c-0.934,1.889,0.014,3.153,1.262,4.384c0.475,0.467,0.895,0.986,0.463,1.733   c-0.258,0.446,0.111,0.698,0.35,1.019c0.582,0.79,0.867,1.479-0.537,1.753c-0.928,0.181-1.037,0.733-0.256,1.336   c0.238,0.185,0.518,0.317,0.781,0.47c1.258,0.728,2.777,0.747,4.018,1.585c1.842,1.247,3.822,1.927,6.039,0.857   c0.387-0.186,0.883-0.165,1.291,0.046c0.527,0.271,0.98,0.033,1.496-0.032c1.021-0.131,1.994-0.759,3.066-0.395   c1.793,0.609,3.477,1.466,4.936,2.661c0.85,0.697,1.904,1.298,2.238,2.463c0.27,0.939,0.807,1.66,1.469,2.357   c1.215,1.275,3.014,1.916,3.824,3.65c0.211,0.451,0.826,0.715,1.51,0.449c0.604-0.234,1.354-0.525,1.916-0.363   c1.533,0.445,2.475-0.293,3.461-1.248c0.797-0.77,1.771-0.621,2.48,0.277c0.895,1.135,1.904,2.193,2.465,3.559   c-0.395,0.418-0.369,0.975-0.475,1.484c-0.076,0.371-0.012,0.732,0.385,0.885c0.393,0.152,0.662-0.064,0.873-0.395   c0.314-0.492,0.662-1.016,1.355-0.803c0.703,0.219,1.205,0.645,1.314,1.473c0.084,0.643,0.398,1.197,1.205,1.109   c0.885-0.096,1.521,0.297,2.02,0.979c0.404,0.555,0.934,0.703,1.496,0.332c1.762-1.168,3.633-1.961,5.717-2.479   c2.004-0.498,3.328,0.139,3.365,2.193c0.006,0.352-0.045,0.756,0.105,1.041c0.523,0.992,0.158,1.709-0.482,2.492   c-1.098,1.34-1.053,1.373,0.674,1.854c0.252,0.07,0.605,0.121,0.715,0.301c0.781,1.301,2.16,1.725,3.357,2.434   c0.885,0.521,1.217,1.277,0.371,2.166c-0.869,0.914-0.68,1.818,0.047,2.703c0.645,0.785,1.188,1.629,1.559,2.574   c0.975,2.48,1.219,5.213,2.828,7.404c0.441,0,1.463-0.654,1.904-0.654c0.459-0.332,0.559-0.684,1.07-0.863   c1.033-0.361,1.547-1.121,2.77-0.492c1.111,0.57,2.607,1.508,3.553,0.725c0.217-0.178,0.625-0.305,0.566-0.398   c-0.814-1.33-0.92-2.592-0.225-4.1c0.66-1.426-0.287-3.289-1.621-4.031c-0.336-0.188-0.57-0.545-0.879-0.789   c-0.615-0.486-0.23-0.514,0.121-1.119c0.371-0.641,0.666-0.646,1.338-0.416c0.531,0.182,0.961-0.252,1.504-0.123   c0.816,0.193,1.354-0.432,1.697-0.941C-520.096,76.381-520.656,75.895-521.133,75.707z"/></g><g><path d="M-387.917,42.415c5.412,6.931,7.47,7.184,14.398,1.77c-6.929,5.414-7.18,7.47-1.77,14.4   c-5.41-6.931-7.47-7.184-14.398-1.77C-382.758,51.401-382.505,49.346-387.917,42.415z"/></g><g><path d="M-435.503,31.187c-5.812,10.316-5.278,11.215,6.559,11.084c-11.837,0.131-12.35,1.042-6.317,11.228   c-6.032-10.187-7.075-10.176-12.884,0.145c5.809-10.321,5.277-11.221-6.562-11.088c11.839-0.133,12.348-1.042,6.318-11.23   C-442.359,41.514-441.314,41.503-435.503,31.187z"/></g><g><path d="M-398.532,43.729c-10.702,10.249-10.393,11.52,3.836,15.665c-14.229-4.146-15.17-3.243-11.649,11.149   c-3.521-14.393-4.779-14.757-15.481-4.508c10.702-10.249,10.394-11.52-3.838-15.658c14.231,4.139,15.173,3.236,11.653-11.158   C-410.492,53.614-409.234,53.979-398.532,43.729z"/></g><g><path d="M-404.938,19.23c13.071,1.893,15.57,0.029,17.457-13.041c-1.887,13.069-0.029,15.562,13.047,17.457   c-13.076-1.895-15.57-0.029-17.462,13.044C-390.005,23.618-391.867,21.123-404.938,19.23z"/></g><g><path d="M-451.209,65.88c12.326,4.743,15.175,3.479,19.911-8.85c-4.736,12.328-3.473,15.17,8.855,19.911   c-12.328-4.741-15.179-3.473-19.913,8.854C-437.621,73.469-438.883,70.623-451.209,65.88z"/></g><g><path d="M-413.408,28.179c2.767,0.875,3.374,0.559,4.246-2.207c-0.872,2.765-0.558,3.372,2.208,4.247   c-2.766-0.875-3.373-0.562-4.246,2.206C-410.327,29.658-410.642,29.054-413.408,28.179z"/></g><g><path d="M-384.83,75.769c2.766,0.874,3.373,0.56,4.247-2.207c-0.874,2.767-0.559,3.373,2.208,4.247   c-2.767-0.874-3.374-0.561-4.247,2.207C-381.749,77.248-382.064,76.643-384.83,75.769z"/></g><g><path d="M-425.67,87.295c2.766,0.874,3.373,0.56,4.247-2.207c-0.874,2.767-0.559,3.373,2.208,4.247   c-2.767-0.874-3.374-0.561-4.247,2.207C-422.589,88.774-422.904,88.169-425.67,87.295z"/></g><g><path d="M-448.28,17.193c2.766,0.874,3.373,0.56,4.247-2.207c-0.874,2.767-0.559,3.373,2.208,4.247   c-2.767-0.874-3.374-0.561-4.247,2.207C-445.199,18.673-445.515,18.067-448.28,17.193z"/></g><g><path d="M-429.713,4.803c5.158,5.236,6.891,5.25,12.126,0.092c-5.235,5.159-5.247,6.892-0.091,12.123   c-5.156-5.23-6.892-5.247-12.124-0.086C-424.569,11.771-424.555,10.039-429.713,4.803z"/></g><g><path d="M-408.354,76.101c5.158,5.236,6.891,5.25,12.126,0.092c-5.235,5.158-5.247,6.893-0.091,12.123   c-5.156-5.23-6.892-5.248-12.124-0.087C-403.211,83.067-403.196,81.337-408.354,76.101z"/></g><g><path fill-rule="evenodd" clip-rule="evenodd" d="M-1184.413-234.129c-0.647-0.062-1.295-0.177-1.943-0.177   c-21.937-0.009-43.874-0.007-65.811-0.007c-0.832,0-1.664,0-2.778,0c4.984,0.993,9.706,1.67,14.28,2.895   c13.123,3.515,24.241,10.433,33.372,20.489c8.811,9.703,14.597,21.028,17.54,33.762c1.569,6.791,2.708,13.815,1.437,20.663   c-1.193,6.431-3.331,12.773-5.776,18.864c-4.002,9.972-10.115,18.616-18.19,25.815c-8.646,7.708-18.723,12.565-29.917,15.254   c-0.242,0.058-0.479,0.135-0.856,0.243c1.089,6.054,2.147,12.038,3.244,18.015c3.084,16.809,6.214,33.61,9.266,50.424   c1.157,6.377,2.225,12.772,3.164,19.185c0.261,1.785,0.155,3.706-0.203,5.48c-0.644,3.19-2.816,4.732-6.593,5.123   c-3.78,0.391-6.667-0.779-7.755-3.951c-1.372-3.996-2.438-8.15-3.122-12.32c-2.344-14.287-4.556-28.596-6.639-42.923   c-1.792-12.317-3.337-24.669-5.012-37.155c-23.127,0.33-42.554-7.929-57.415-25.781c-11.354-13.639-16.644-29.696-15.773-47.365   c1.564-31.741,25.59-63.058,65.496-66.588c-0.614-0.041-1.227-0.117-1.841-0.117c-20.755-0.009-41.51-0.012-62.265-0.004   c-0.585,0-1.17,0.115-1.755,0.176c0.591-0.132,1.183-0.377,1.774-0.378c27.198-0.019,54.396-0.017,81.594-0.017   c20.3,0,40.6-0.003,60.9,0.017C-1185.463-234.507-1184.938-234.261-1184.413-234.129z M-1299.788-216.864   c-5.921,3.415-15.354,14.384-19.421,22.491c-6.163,12.285-8.522,25.183-6.727,38.83c1.08,8.208,3.648,15.926,7.727,23.109   c7.51,13.228,18.312,22.826,32.294,28.805c10.648,4.553,21.8,6.165,33.277,5c10.581-1.075,20.447-4.482,29.401-10.283   c7.403-4.795,13.789-10.544,18.094-18.488c6.862-12.664,8.611-26.164,6.802-40.172c-1.436-11.122-5.411-21.426-12.193-30.451   c-12.935-17.213-30.117-24.92-51.587-22.192c-10.372,1.317-19.895,5.165-28.052,11.812c-14.905,12.146-21.092,27.825-18.071,46.868   c1.798,11.333,7.308,20.801,15.763,28.5c8.609,7.839,18.817,12.081,30.448,12.313c9.906,0.198,18.971-2.755,26.97-8.716   c15.591-11.618,21.936-32.059,13.168-49.611c-5.771-11.555-15.109-18.788-28.057-20.283c-11.221-1.296-20.742,2.675-28.118,11.365   c-9.537,11.235-8.583,27.281,2.162,37.161c7.67,7.052,18.87,7.618,27.021,1.365c6.583-5.05,8.552-14.031,4.489-20.476   c-2.879-4.569-7.972-6.63-12.472-5.048c-4.125,1.45-5.375,5.665-2.646,8.913c1.396,1.66,1.31,3.331-0.436,4.821   c-1.503,1.284-3.285,1.879-5.296,1.383c-6.06-1.495-9.323-8.943-6.618-15.096c3.212-7.304,11.474-11.251,19.409-9.274   c10.955,2.729,18.22,14.724,15.794,26.076c-3.232,15.129-18.904,24.729-34.226,21.169c-19.517-4.533-31.339-26.718-23.243-46.664   c7.584-18.683,27.896-28.772,47.68-23.856c20.114,4.998,33.964,23.664,34.315,44.209c0.215,12.614-4.033,23.807-12.57,33.164   c-13.098,14.357-29.514,20.21-48.581,17.194c-16.378-2.59-29.003-11.595-37.996-25.509c-7.586-11.739-10.663-24.596-9.146-38.554   c1.135-10.454,4.692-19.978,10.913-28.404C-1306.456-209.537-1302.854-213.28-1299.788-216.864z M-1254.147-94.532   c1.423,10.522,2.72,20.912,4.254,31.266c2.563,17.295,5.231,34.575,7.975,51.842c0.457,2.878,1.319,5.736,2.364,8.462   c0.839,2.189,2.789,2.69,6.113,2.175c1.994-0.309,3.246-1.45,3.44-3.465c0.163-1.685,0.354-3.436,0.08-5.083   c-1.38-8.329-2.881-16.639-4.391-24.947c-3.195-17.582-6.419-35.159-9.638-52.736c-0.536-2.925-1.104-5.843-1.661-8.783   C-1248.585-95.359-1251.287-94.958-1254.147-94.532z"/><path fill-rule="evenodd" clip-rule="evenodd" fill="#000000" d="M-1299.788-216.864c-3.065,3.584-6.668,7.327-9.728,11.471   c-6.221,8.426-9.778,17.951-10.913,28.404c-1.517,13.958,1.56,26.815,9.146,38.554c8.993,13.914,21.618,22.918,37.996,25.509   c19.067,3.016,35.483-2.837,48.581-17.194c8.537-9.357,12.786-20.55,12.57-33.164c-0.351-20.545-14.202-39.211-34.315-44.209   c-19.784-4.916-40.096,5.173-47.68,23.856c-8.096,19.946,3.726,42.13,23.243,46.664c15.322,3.559,30.994-6.041,34.226-21.169   c2.426-11.352-4.839-23.347-15.794-26.076c-7.936-1.978-16.197,1.97-19.409,9.274c-2.705,6.153,0.558,13.601,6.618,15.096   c2.011,0.496,3.792-0.099,5.296-1.383c1.746-1.49,1.832-3.161,0.436-4.821c-2.73-3.248-1.479-7.462,2.646-8.913   c4.5-1.583,9.593,0.479,12.472,5.048c4.062,6.445,2.093,15.426-4.489,20.476c-8.151,6.253-19.35,5.687-27.021-1.365   c-10.746-9.88-11.699-25.926-2.162-37.161c7.376-8.69,16.896-12.661,28.118-11.365c12.948,1.495,22.286,8.728,28.057,20.283   c8.768,17.553,2.422,37.994-13.168,49.611c-8,5.96-17.064,8.914-26.97,8.716c-11.631-0.232-21.839-4.474-30.448-12.313   c-8.456-7.699-13.965-17.166-15.763-28.5c-3.021-19.043,3.166-34.722,18.071-46.868c8.157-6.647,17.68-10.495,28.052-11.812   c21.471-2.728,38.653,4.979,51.587,22.192c6.782,9.025,10.757,19.33,12.193,30.451c1.809,14.008,0.06,27.508-6.802,40.172   c-4.305,7.944-10.69,13.693-18.094,18.488c-8.955,5.8-18.821,9.208-29.401,10.283c-11.477,1.166-22.629-0.447-33.277-5   c-13.982-5.979-24.785-15.578-32.294-28.805c-4.079-7.183-6.646-14.901-7.727-23.109c-1.795-13.647,0.564-26.545,6.727-38.83   C-1315.142-202.48-1305.709-213.45-1299.788-216.864z"/><path fill-rule="evenodd" clip-rule="evenodd" fill="#000000" d="M-1254.147-94.532c2.861-0.425,5.562-0.827,8.537-1.268   c0.557,2.939,1.125,5.858,1.661,8.783c3.219,17.577,6.443,35.154,9.638,52.736c1.509,8.308,3.01,16.618,4.391,24.947   c0.273,1.647,0.083,3.398-0.08,5.083c-0.194,2.015-1.446,3.156-3.44,3.465c-3.324,0.515-5.274,0.014-6.113-2.175   c-1.045-2.726-1.907-5.583-2.364-8.462c-2.744-17.268-5.412-34.547-7.975-51.842C-1251.428-73.621-1252.724-84.01-1254.147-94.532z   "/></g><path d="M-221.895,29.911c2.387-10.419-4.122-20.801-14.539-23.189c-10.419-2.389-20.805,4.12-23.193,14.539  c-2.321,10.127,3.777,20.2,13.69,22.95c0,0-8.645,32.623-10.654,46.318c-0.063,0.43,1.541,0.797,1.694,0.39  c0.759-2.021,10.654-46.318,10.654-46.318C-234.112,46.459-224.219,40.049-221.895,29.911z M-238.52,44.178  c-2.284,0.345-4.561,0.239-6.812-0.303c-3.745-0.902-6.879-2.814-9.469-5.657c-1.707-1.877-3.625-5.442-3.926-7.333  c0.629,1.161,1.246,2.479,2.022,3.693c1.576,2.472,3.704,4.357,6.322,5.703c3.494,1.799,7.162,2.287,10.988,1.483  c4.539-0.951,8.158-3.344,10.481-7.362c2.703-4.678,2.822-9.553,0.386-14.417c-1.585-3.17-4.081-5.404-7.396-6.614  c-5.402-1.973-11.67-0.229-14.997,4.522c-3.27,4.675-2.675,10.993,1.444,14.852c4.396,4.117,11.377,3.258,14.523-1.385  c2.468-3.645,1.533-8.703-2.092-11.066c-2.723-1.774-6.584-1.08-8.397,1.506c-1.315,1.875-1.113,4.429,0.47,6.001  c1.336,1.324,3.61,1.221,4.61-0.213c0.331-0.475,0.354-1,0.171-1.521c-0.213-0.606-0.643-0.796-1.217-0.599  c-1.123,0.387-2.097-0.363-2.062-1.586c0.041-1.334,1.091-2.457,2.571-2.751c2.091-0.414,4.24,1.004,4.896,3.229  c0.817,2.758-0.456,5.626-3.069,6.921c-3.659,1.814-7.947,0.451-9.923-3.168c-1.53-2.799-1.612-5.686-0.145-8.486  c1.691-3.231,4.519-4.945,8.116-5.292c5.466-0.526,10.166,3.184,11.636,8.423c0.753,2.689,0.616,5.354-0.433,7.92  c-1.227,3.015-3.361,5.256-6.274,6.717c-2.859,1.436-5.886,1.924-9.027,1.256c-5.276-1.124-8.753-4.315-10.427-9.428  c-0.918-2.799-0.966-5.673-0.269-8.515c1.443-5.882,5.186-9.595,10.979-11.246c3.04-0.865,6.13-0.869,9.18-0.126  c3.841,0.935,7.19,2.747,9.808,5.811c1.645,1.923,2.505,4.167,3.016,6.584c0.614,2.921,0.514,5.841-0.269,8.712  c-0.847,3.115-2.39,5.867-4.648,8.191C-230.72,41.685-234.31,43.544-238.52,44.178z"/><path d="M-167.933,100.279c-10.419-2.389-20.805,4.121-23.193,14.539c-1.766,7.705,1.349,15.367,7.301,19.809  c-0.022,0.021-0.045,0.04-0.067,0.06c-1.649,1.528-3.022,3.27-3.637,5.494c-0.272,0.987-0.142,1.626,0.543,1.977  c0.364,0.188,0.877,0.201,1.3,0.139c1.396-0.211,2.543,0.208,3.514,1.205c0.758,0.779,1.363,1.722,2.414,2.191  c0.012,0.006,0.023,0.008,0.036,0.014c-2.959,10.453-7.896,28.609-9.275,38.014c-0.063,0.43,3.284,1.341,3.438,0.934  c0.557-1.483,5.59-25.855,8.226-38.704c0.515-0.104,1.023-0.295,1.527-0.546c0.476-0.237,0.94-0.493,1.398-0.762  c0.802-0.471,1.582-0.256,2.368,0.042c0.719,0.27,1.453,0.503,2.154,0.812c1.225,0.543,2.236-0.415,2.187-1.609  c-0.079-1.944-0.404-3.814-1.145-5.593c-0.017-0.04-0.039-0.084-0.058-0.125c7.426-1.307,13.718-6.887,15.509-14.7  C-151.007,113.05-157.516,102.668-167.933,100.279z"/><g><path d="M-111.426,50.973c0.015,0.01,0.021,0.013,0.034,0.021c0.001-0.003,0.001-0.006,0.002-0.008   C-111.402,50.98-112.307,50.401-111.426,50.973z"/><path d="M-99.6,5.56c-10.419-2.389-20.805,4.12-23.193,14.539c-1.766,7.704,1.349,15.367,7.301,19.808   c-0.022,0.021-0.045,0.04-0.067,0.06c-1.649,1.528-3.022,3.269-3.637,5.494c-0.272,0.987-0.142,1.626,0.543,1.977   c0.364,0.188,0.877,0.201,1.3,0.139c1.396-0.211,2.543,0.208,3.514,1.205c0.746,0.768,3.294,2.75,2.448,2.213   c-2.959,10.454-7.894,28.604-9.273,38.006c-0.063,0.43,3.284,1.341,3.438,0.934c0.557-1.483,6.613-26.15,9.249-38.999   c0.515-0.104,0,0,0.504-0.251c0.476-0.237,0.94-0.493,1.398-0.762c0.802-0.471,1.582-0.256,2.368,0.042   c0.719,0.27,1.453,0.503,2.154,0.812c1.225,0.543,2.236-0.415,2.187-1.609c-0.079-1.944-0.404-3.814-1.145-5.593   c-0.017-0.04-0.039-0.084-0.058-0.125c7.426-1.306,13.718-6.887,15.509-14.7C-82.674,18.33-89.183,7.948-99.6,5.56z    M-89.916,30.662c-0.357-1.455-0.822-2.879-1.389-4.263c0.125-0.776,0.216-1.563,0.23-2.373c0.113-6.285-3.246-11.821-8.306-14.793   c6.274,2.528,10.659,8.712,10.529,15.878C-88.886,27.065-89.271,28.928-89.916,30.662z"/></g><path d="M71.522-90.619c0,0.389-0.289,0.703-0.645,0.703H48.917c-0.355,0-0.645-0.314-0.645-0.703v-5.427  c0-0.389,0.289-0.703,0.645-0.703h21.961c0.355,0,0.645,0.314,0.645,0.703V-90.619z"/><path d="M41.462-93.296c0,0.256-0.136,0.463-0.302,0.463H30.885c-0.166,0-0.302-0.207-0.302-0.463v-3.574  c0-0.256,0.136-0.463,0.302-0.463H41.16c0.166,0,0.302,0.207,0.302,0.463V-93.296z"/><path d="M25.282-68.103c-0.334,0-0.605-0.249-0.605-0.556v-18.911c0-0.307,0.271-0.556,0.605-0.556h4.674  c0.334,0,0.604,0.249,0.604,0.556v18.911c0,0.307-0.271,0.556-0.604,0.556H25.282z"/><circle cx="32.811" cy="-68.103" r="6.025"/><circle cx="46.354" cy="-68.103" r="6.025"/><circle cx="59.897" cy="-68.103" r="6.025"/><g><path d="M50.563-93.333v24.5h18.668v-24.5H50.563z M64.565-79.96h-9.334v-8.165h9.334V-79.96z"/></g><rect x="33.23" y="-95.083" width="5.583" height="11.417"/><rect x="27.618" y="-85.417" width="26.501" height="16.25"/><path d="M88.026,17.175H48.954c-0.633,0-1.146,0.559-1.146,1.25v9.656c0,0.692,0.514,1.252,1.146,1.252h2.93v8.004H30.978V24.143  h4.176c0.295,0,0.537-0.369,0.537-0.824V16.96c0-0.455-0.242-0.824-0.537-0.824H16.872c-0.295,0-0.537,0.369-0.537,0.824v6.358  c0,0.456,0.242,0.824,0.537,0.824h4.172v13.195h-4.75v-3.83c0-0.545-0.48-0.989-1.074-0.989H6.903c-0.594,0-1.076,0.443-1.076,0.989  v33.646c0,0.545,0.482,0.989,1.076,0.989h2.676c0,5.92,4.799,10.72,10.719,10.72c5.922,0,10.721-4.8,10.721-10.72  c0-0.647-0.068-1.277-0.178-1.894h3.012c-0.109,0.616-0.178,1.246-0.178,1.894c0,5.92,4.799,10.72,10.721,10.72  s10.721-4.8,10.721-10.72c0-0.442-0.035-0.874-0.088-1.302h2.83c-0.055,0.428-0.088,0.859-0.088,1.302  c0,5.92,4.801,10.72,10.719,10.72c5.922,0,10.721-4.8,10.721-10.72c0-0.442-0.033-0.874-0.086-1.302h5.973V29.333h2.93  c0.633,0,1.146-0.56,1.146-1.252v-9.656C89.173,17.734,88.659,17.175,88.026,17.175z M60.188,47.046V32.519h16.607v14.527H60.188z"/><text x="0" y="110" fill="#000000" font-size="5px" font-weight="bold" font-family="'Helvetica Neue', Helvetica, Arial-Unicode, Arial, Sans-serif">Created by Lilit Kalachyan</text><text x="0" y="115" fill="#000000" font-size="5px" font-weight="bold" font-family="'Helvetica Neue', Helvetica, Arial-Unicode, Arial, Sans-serif">from the Noun Project</text></svg>